<svg width="1011" height="812" viewBox="0 0 1011 812" fill="none" xmlns="http://www.w3.org/2000/svg">
<path d="M792.043 76.2257L808.249 20L824.456 76.2257C839.755 129.297 881.243 170.785 934.314 186.084L990.54 202.29L934.314 218.497C881.243 233.796 839.755 275.284 824.456 328.355L808.249 384.581L792.043 328.355C776.744 275.284 735.255 233.796 682.185 218.497L625.959 202.29L682.185 186.084C735.255 170.785 776.744 129.297 792.043 76.2257Z" stroke="#FFBB00" stroke-width="40" stroke-miterlimit="10" stroke-linecap="round" stroke-linejoin="round"/>
<path d="M84.144 733.863L809.027 210.934L500.024 733.863" stroke="#FFBB00" stroke-width="40" stroke-miterlimit="10" stroke-linecap="round" stroke-linejoin="round"/>
<path d="M281.777 733.863L809.027 210.934" stroke="#FFBB00" stroke-width="40" stroke-miterlimit="10" stroke-linecap="round" stroke-linejoin="round"/>
<path d="M21.0036 812C32.6036 812 42.0072 802.596 42.0072 790.996C42.0072 779.396 32.6036 769.993 21.0036 769.993C9.40363 769.993 0 779.396 0 790.996C0 802.596 9.40363 812 21.0036 812Z" fill="#FFBB00"/>
<path d="M240.461 812C252.061 812 261.464 802.596 261.464 790.996C261.464 779.396 252.061 769.993 240.461 769.993C228.861 769.993 219.457 779.396 219.457 790.996C219.457 802.596 228.861 812 240.461 812Z" fill="#FFBB00"/>
<path d="M460.869 812C472.469 812 481.872 802.596 481.872 790.996C481.872 779.396 472.469 769.993 460.869 769.993C449.269 769.993 439.865 779.396 439.865 790.996C439.865 802.596 449.269 812 460.869 812Z" fill="#FFBB00"/>
</svg>
