<svg width="1030" height="621" viewBox="0 0 1030 621" fill="none" xmlns="http://www.w3.org/2000/svg">
<path d="M936.196 422.071C1017.25 410.5 1019.13 337.463 1018.36 308.588C1018.36 308.111 1018.34 307.659 1018.31 307.182C1015.89 243.805 965.416 191.655 902.146 187.302C881.286 185.869 861.461 189.585 843.732 197.255C825.526 91.468 733.354 11 622.366 11C507.608 11 412.942 97.0678 399.407 208.189C370.505 179.367 330.643 161.532 286.587 161.532C212.886 161.532 150.89 211.427 132.419 279.289C120.476 274.379 107.206 271.99 93.2992 272.893C46.6957 275.865 11 315.754 11 362.437C11 391.126 22.1732 406.121 40.2201 413.924" stroke="#FFBB00" stroke-width="22" stroke-miterlimit="10" stroke-linecap="round" stroke-linejoin="round"/>
<path d="M650.365 169.096L660.317 134.568L670.27 169.096C679.665 201.687 705.143 227.165 737.733 236.56L772.261 246.512L737.733 256.465C705.143 265.86 679.665 291.338 670.27 323.928L660.317 358.456L650.365 323.928C640.97 291.338 615.492 265.86 582.901 256.465L548.373 246.512L582.901 236.56C615.492 227.165 640.97 201.687 650.365 169.096Z" stroke="#FFBB00" stroke-width="22" stroke-miterlimit="10" stroke-linecap="round" stroke-linejoin="round"/>
<path d="M215.647 572.949L660.795 251.82L471.037 572.949" stroke="#FFBB00" stroke-width="22" stroke-miterlimit="10" stroke-linecap="round" stroke-linejoin="round"/>
<path d="M337.012 572.949L660.795 251.82" stroke="#FFBB00" stroke-width="22" stroke-miterlimit="10" stroke-linecap="round" stroke-linejoin="round"/>
<path d="M176.872 620.933C183.996 620.933 189.771 615.158 189.771 608.034C189.771 600.911 183.996 595.136 176.872 595.136C169.749 595.136 163.974 600.911 163.974 608.034C163.974 615.158 169.749 620.933 176.872 620.933Z" fill="#FFBB00"/>
<path d="M311.64 620.933C318.764 620.933 324.538 615.158 324.538 608.034C324.538 600.911 318.764 595.136 311.64 595.136C304.517 595.136 298.742 600.911 298.742 608.034C298.742 615.158 304.517 620.933 311.64 620.933Z" fill="#FFBB00"/>
<path d="M446.992 620.933C454.116 620.933 459.89 615.158 459.89 608.034C459.89 600.911 454.116 595.136 446.992 595.136C439.869 595.136 434.094 600.911 434.094 608.034C434.094 615.158 439.869 620.933 446.992 620.933Z" fill="#FFBB00"/>
</svg>
